<svg t="1731322206615" class="icon" viewBox="0 0 1024 1024" version="1.1" xmlns="http://www.w3.org/2000/svg" p-id="6765" width="128" height="128"><path d="M60.749824 511.233024c0-0.64 0.33792-1.170432 0.36864-1.804288 0.258048-8.978432 3.432448-17.897472 10.35264-24.753152 1.262592-1.250304 2.8928-1.782784 4.281344-2.814976l334.983168-331.720704c14.413824-14.270464 37.782528-14.270464 52.194304 0 14.413824 14.273536 14.413824 37.413888 0 51.687424L188.019712 474.062848l736.06656 0c20.731904 0 37.536768 16.64 37.536768 37.170176 0 20.528128-16.804864 37.170176-37.536768 37.170176L188.019712 548.4032l274.911232 272.234496c14.413824 14.270464 14.413824 37.41184 0 51.685376-14.411776 14.270464-37.78048 14.270464-52.194304 0L75.752448 540.60544c-1.388544-1.03424-3.019776-1.564672-4.281344-2.818048-6.921216-6.854656-10.094592-15.77472-10.35264-24.753152C61.087744 512.403456 60.749824 511.870976 60.749824 511.233024z" p-id="6766" fill="#ffffff"></path></svg>